<?xml version="1.0" standalone="no"?>
<!DOCTYPE svg PUBLIC "-//W3C//DTD SVG 20010904//EN"
 "http://www.w3.org/TR/2001/REC-SVG-20010904/DTD/svg10.dtd">
<svg version="1.0" xmlns="http://www.w3.org/2000/svg"
 width="260.000000pt" height="260.000000pt" viewBox="0 0 260.000000 260.000000"
 preserveAspectRatio="xMidYMid meet">
<metadata>
Created by potrace 1.11, written by Peter Selinger 2001-2013
</metadata>
<g transform="translate(0.000000,260.000000) scale(0.100000,-0.100000)"
fill="#000000" stroke="none">
<path d="M1355 1389 c-523 -501 -978 -938 -1013 -973 l-63 -62 29 -27 28 -27
949 911 c523 501 978 938 1013 973 l63 62 -29 27 -28 27 -949 -911z"/>
<path d="M460 1840 l0 -350 55 0 55 0 0 263 1 262 111 -227 111 -228 37 0 37
0 111 228 111 227 0 -262 1 -263 55 0 55 0 0 350 0 350 -68 0 -67 0 -115 -230
c-63 -126 -117 -230 -120 -230 -3 0 -57 104 -120 230 l-115 230 -67 0 -68 0 0
-350z"/>
<path d="M1520 820 l0 -350 255 0 255 0 0 50 0 50 -195 0 -195 0 0 100 0 100
170 0 170 0 0 50 0 50 -170 0 -170 0 0 100 0 100 190 0 190 0 0 50 0 50 -250
0 -250 0 0 -350z"/>
</g>
</svg>
